<?xml version="1.0" standalone="no"?>
<!DOCTYPE svg PUBLIC "-//W3C//DTD SVG 20010904//EN"
 "http://www.w3.org/TR/2001/REC-SVG-20010904/DTD/svg10.dtd">
<svg version="1.0" xmlns="http://www.w3.org/2000/svg"
 width="992.000000pt" height="992.000000pt" viewBox="0 0 992.000000 992.000000"
 preserveAspectRatio="xMidYMid meet">
<metadata>
Created by potrace 1.14, written by Peter Selinger 2001-2017
</metadata>
<g transform="translate(0.000000,992.000000) scale(0.100000,-0.100000)"
fill="#000000" stroke="none">
<path d="M6475 8141 c-33 -9 -94 -34 -135 -56 -70 -36 -122 -86 -795 -757
l-720 -718 -660 659 c-601 599 -666 661 -730 693 -95 49 -163 68 -270 74 -116
8 -212 -12 -325 -67 l-85 -41 -1326 -1327 c-1288 -1288 -1327 -1328 -1362
-1401 -50 -103 -67 -176 -67 -295 0 -119 17 -192 67 -295 35 -73 74 -113 1362
-1401 l1326 -1327 85 -41 c89 -43 203 -71 291 -71 114 0 258 45 356 111 26 17
366 349 755 738 l708 706 652 -650 c697 -694 703 -700 848 -746 42 -14 103
-23 170 -26 126 -6 210 11 320 64 73 35 107 68 1406 1367 1299 1299 1332 1333
1367 1406 53 110 70 194 64 320 -3 67 -12 128 -26 170 -48 152 1 99 -1401
1500 -1415 1416 -1347 1352 -1513 1405 -98 31 -266 34 -362 6z m-994 -2198
c692 -696 694 -698 742 -848 31 -100 31 -280 0 -380 -47 -148 -55 -157 -683
-788 l-585 -588 -661 663 c-630 632 -662 666 -697 738 -50 101 -67 176 -67
290 0 113 17 187 66 290 35 72 62 100 633 673 327 328 598 597 601 597 3 0
296 -291 651 -647z"/>
</g>
</svg>
